<?xml version="1.0" standalone="no"?>
<!DOCTYPE svg PUBLIC "-//W3C//DTD SVG 1.1//EN" "http://www.w3.org/Graphics/SVG/1.1/DTD/svg11.dtd">
<svg xmlns="http://www.w3.org/2000/svg" version="1.2" viewBox="0 0 2048 731" width="2048" height="731">
	<title>Black</title>
	<style>
		.s0 { fill: #d10019 } 
		.s1 { fill: #000000 } 
		.s2 { fill: #ffffff } 
		.s3 { fill: #d70620 } 
	</style>
	<g id="Background">
		<path id="Path 0" fill-rule="evenodd" class="s0" d="m396.8 154.5c2.8 0.3 7.8 1.3 10.9 2.3 4.6 1.4 7.1 3 12.9 8.7 5.8 5.7 7.4 8 8.8 12.5 0.9 3 1.9 7.8 2.3 10.5 0.3 3.1 0 7.8-1.1 12.5-1.1 5.1-2.8 9.4-5.5 13.5-2.2 3.3-10.4 12.3-18.3 20.1-11.4 11.3-15.6 14.7-20.8 17.2-3.6 1.7-9.3 3.6-12.8 4.1-4.4 0.8-8 0.8-12.5 0-3.4-0.6-8-1.8-10.2-2.8-2.2-1-5.8-3.3-7.9-5.2-2.1-1.9-5.1-5.2-6.6-7.4-1.5-2.2-3.5-6.5-4.4-9.5-0.9-3-1.6-8.1-1.6-11.3 0-3.1 0.7-8.3 1.5-11.4 0.9-3.2 2.9-8 4.5-10.8 1.6-2.7 9.6-11.6 17.7-19.6 8.1-8.1 16.8-15.9 19.3-17.5 2.5-1.5 7.6-3.5 11.5-4.5 4.4-1.2 9-1.7 12.2-1.4zm-26 39.4c-6.6 6.4-13 13.3-14.3 15.4q-2.4 3.7-2.4 8c0 2.6 0.9 5.5 2.3 7.6 1.2 1.9 3.6 4.3 5.2 5.4 1.9 1.3 4.7 2 7.5 2 2.8 0 5.8-0.8 8-2.1 1.9-1.1 9.2-7.8 16.1-14.9 9.7-9.8 12.9-13.7 13.8-16.8 0.6-2.2 1.1-4.7 1.1-5.5 0-0.8-1-3.5-2.3-5.9-1.2-2.4-3.6-5.2-5.2-6.2-1.8-1.1-5-1.9-8-1.9-3 0-6 0.6-7.5 1.6-1.4 0.9-7.8 6.9-14.3 13.3zm1427.5 238.1c0.7 0 4.2 0.9 7.8 2 3.6 1.1 10.3 3.2 15 4.6 4.7 1.5 11 3.4 14 4.4 3 1 10.5 3.2 16.5 5 6 1.8 13.5 4 16.5 5 3 0.9 9.3 2.9 14 4.4 4.7 1.4 13.7 4.1 20 6 6.3 1.9 12.7 3.9 14.2 4.5 2.8 1.1 2.8 1.2 2.9 18.6l-7.3 2.4c-4 1.3-10.5 3.4-14.3 4.7-3.8 1.2-11 3.4-16 4.9-5 1.5-11.5 3.5-14.5 4.5-3 0.9-9.5 3-14.5 4.5-5 1.5-11.5 3.6-14.5 4.6-3 1-9.5 2.9-14.5 4.4-5 1.4-12.3 3.7-16.3 5-3.9 1.4-7.9 2.5-8.7 2.5-1.2 0-1.5-1.7-1.5-19l3.2-0.9c1.8-0.5 7.6-2.1 12.8-3.6 5.2-1.4 13.4-3.7 18.2-5.1 4.9-1.3 13-3.6 18-5 5.1-1.5 13.1-3.8 17.8-5.1 4.7-1.3 11.4-3.2 15-4.3 3.6-1 8.1-2.1 10-2.5 2-0.4 3.1-1 2.5-1.5-0.5-0.4-4.6-1.8-9-3-4.4-1.2-12-3.3-17-4.7-5-1.3-12.2-3.3-16-4.4-3.8-1-10.4-2.8-14.5-4-4.1-1.1-9.3-2.5-11.5-2.9-2.2-0.5-6.7-1.7-10-2.8-3.3-1-8.5-2.5-11.5-3.2-3-0.7-6.1-1.8-6.8-2.4-0.9-0.7-1.3-3.8-1.2-9.3 0-6 0.4-8.3 1.2-8.3z"/>
		<path id="Path 1" fill-rule="evenodd" class="s1" d="m308.7 239c1.7 0 24 21.7 84.3 82 45.1 45.1 82.3 82 82.8 82 0.4 0 0.6 1.2 0.5 2.5-0.2 1.4 0.2 2.5 0.7 2.5 0.6 0 1 0.4 1 1 0 0.6-1 1.4-2.2 1.9-1.3 0.5-38.9 37.6-83.5 82.5-46.1 46.3-82.1 81.6-83 81.6-1 0-23.4-21.6-50.3-48.5-32.8-32.7-48.4-49-48.2-50.2 0.1-1 27.9-29.5 123.1-124.8l-10-9.7c-5.4-5.4-10.4-9.8-11-9.8-0.6 0-28.1 26.9-60.9 59.8-32.9 32.8-59.6 60-59.4 60.5 0.2 0.4-0.7 0.9-2.1 1.2-1.4 0.3-3.3 0.1-4.2-0.4-1-0.5-11.6-10.8-23.5-22.8-12-12-21.9-22.7-22-23.8-0.2-1.4 21.8-24 82.7-84.7 60.9-60.8 83.6-82.8 85.2-82.8zm-15.7 233.3c0 0.6 4.2 5.4 9.2 10.4 5.1 5.1 9.8 9.3 10.5 9.3 0.7 0 19-17.8 40.8-39.5 21.7-21.7 39.5-39.9 39.5-40.5 0-0.6-4.5-5.5-10-11-5.5-5.5-10.1-10-10.2-9.9-0.2 0-18.2 18-40 40-21.9 21.9-39.8 40.5-39.8 41.1z"/>
		<path id="Path 2" fill-rule="evenodd" class="s0" d="m461 218.5c5.6 0.3 9.1 1.2 13.5 3.4 3.3 1.5 8 4.8 10.4 7.2 2.4 2.4 5.7 7.3 7.4 10.9 2.5 5.5 3 7.8 3.1 15 0 6.7-0.5 9.7-2.4 14.5-1.3 3.3-3.6 7.8-5.1 10-1.5 2.2-14.8 16.1-56.4 57.7l-6.5-6.4c-3.6-3.5-7.2-7.2-8-8.2-1.4-1.6 0.6-3.8 24.7-27.9 17.3-17.3 26.7-27.5 27.7-30 0.9-2 1.6-5.3 1.6-7.2 0-1.9-0.9-5.3-2-7.5-1.1-2.2-3.2-4.6-4.8-5.4-1.5-0.7-3.8-1.6-5.2-1.9-1.4-0.4-4.8 0-7.5 0.8-4.6 1.3-7.4 3.8-31.5 28-14.6 14.6-26.8 26.5-27.3 26.5-0.4 0-4.1-3.5-8.2-7.8-4.2-4.2-7.5-7.9-7.5-8.2 0-0.3 12.5-12.9 27.7-28.1 21.2-21.1 29.1-28.3 33.3-30.5 3-1.5 7.8-3.3 10.5-4.1 3-0.7 8-1.1 12.5-0.8zm1117 3.5v164.5c0 145.3-0.2 164.6-1.5 165-0.8 0.3-5.1 0.5-9.5 0.5-4.4 0-8.7-0.2-9.5-0.5-1.3-0.4-1.5-19.7-1.7-164.3-0.1-90.1 0.2-164.2 0.7-164.5 0.5-0.4 5.5-0.7 21.5-0.7zm-1054 60.4c4.1 0.3 9.5 1.2 12 2 2.5 0.9 7 3.7 10 6.4 3 2.7 6.5 6.4 7.7 8.3 1.2 1.9 3 5.9 3.9 8.9 0.9 3 1.6 8 1.6 11 0 3-0.7 8.3-1.6 11.8-0.9 3.5-3.3 8.7-5.5 12-2.2 3.1-8.7 10.4-25.1 26.7l-38.8-39-3.1 4.5c-2.6 3.7-3.2 5.5-3.2 10 0.1 4.8 0.5 6 3.6 9.8 2.2 2.6 4.9 4.6 7.3 5.3 2.4 0.7 6.6 0.9 19.7-0.3l0.7 4.4c0.4 2.3 1.1 7.1 1.5 10.4 0.7 5.6 0.6 6.2-1.2 6.7-1.1 0.3-5.1 1.1-9 1.8-4 0.6-9.8 0.9-13.5 0.6-3.6-0.4-8.2-1.1-10.2-1.7-2.1-0.5-6.1-2.9-8.9-5.2-2.8-2.4-6.5-6.1-8-8.3-1.6-2.2-3.9-7.4-5-11.5-1.6-5.6-2-8.9-1.5-13 0.4-3 1.2-7.1 1.8-9 0.6-1.9 2-5.5 3.2-8 1.3-2.8 7.5-10 16.6-19.4 8-8.2 17-16.5 20-18.4 3-1.9 8.2-4.4 11.5-5.4 4.3-1.3 8.1-1.7 13.5-1.4zm-15.5 28.6l-2 2c17 17 22.3 21.7 22.8 21.5 0.4-0.3 1.8-2.3 3.2-4.5 1.7-2.7 2.5-5.4 2.5-8.5 0-2.9-0.8-5.7-2.1-7.7-1.2-1.8-3.2-4.1-4.5-5-1.3-1-4.1-2-6.2-2.3-2.1-0.3-5.4 0.1-7.7 1-2.2 0.8-4.9 2.4-6 3.5z"/>
		<path id="Path 3" class="s2" d="m800.4 247c0 14 0.2 19.9 0.3 13 0.2-6.9 0.2-18.3 0-25.5-0.1-7.2-0.3-1.5-0.3 12.5zm378-2.5c0 8.3 0.2 11.4 0.3 7 0.2-4.4 0.2-11.2 0-15-0.1-3.8-0.3-0.3-0.3 8zm21.9 24c0 4.4 0.2 6 0.4 3.5 0.2-2.5 0.2-6.1 0-8-0.2-1.9-0.4 0.1-0.4 4.5zm-185.5 0c1.8 2.2 3.9 5.8 4.7 8 0.8 2.3 1.4 3.2 1.5 2 0-1.1-1.3-4-2.8-6.5-1.6-2.5-3.7-5.2-4.7-6-1.1-0.8-0.5 0.3 1.3 2.5zm163.4 40c-0.2 24 0.1 32.7 1 34.7 0.7 1.6 1.6 2.8 2.1 2.8 0.4 0 0.1-1-0.5-2.3-0.9-1.6-1.4-11.4-1.8-34.7l-0.6-32.5zm-341.1-29.1c0 0.3 0.8 3.1 1.9 6.1 1.1 3 2.5 5.7 3 6 0.6 0.3 0.8-0.2 0.3-1.2-0.3-1-1.2-2.9-2-4.3-0.7-1.4-1.2-3.3-1.2-4.2 0.1-0.9-0.3-2-0.9-2.3-0.5-0.3-1-0.4-1.1-0.1zm-142.6 32.6c0 16.8 0.1 23.5 0.3 15 0.1-8.5 0.1-22.3 0-30.5-0.2-8.3-0.3-1.3-0.3 15.5zm325.7 2c-0.1 17.3 0.2 32 0.6 32.7 0.4 0.6 0.6-10.4 0.5-24.5-0.2-14.2-0.4-28.8-0.6-32.7-0.1-3.9-0.4 7.2-0.5 24.5zm97.6-1.3c0.1 13.1 0.4 29.7 0.5 36.8 0.2 7.1 0.4-3.5 0.5-23.7 0.1-20.3-0.1-36.8-0.5-36.8-0.4 0-0.7 10.7-0.5 23.7zm-399.2-17.4c-0.4 2.3-0.9 5.3-1.2 6.7-0.4 1.7-0.3 2.2 0.4 1.5 0.6-0.6 1.3-3.6 1.7-6.8 0.3-3.1 0.4-5.7 0.2-5.7-0.2 0-0.7 1.9-1.1 4.2zm814.1 5.8c0.3 3 1 5.9 1.5 6.5 0.6 0.6 0.7-0.7 0.2-3.5-0.3-2.5-1-5.4-1.5-6.5-0.5-1.2-0.6 0.3-0.2 3.5zm-638.6 1.2c0 1-1 3.9-2.1 6.5-1.1 2.7-1.9 5.2-1.7 5.8 0.2 0.6 1.4-1.7 2.6-5 1.3-3.3 2.1-6.7 1.8-7.5-0.4-1.2-0.5-1.1-0.6 0.2zm-28 7c1.2 2.9 2.3 5.5 2.6 5.8 0.3 0.3 0.2-0.9-0.2-2.5-0.4-1.6-1.4-4.2-2.1-5.8-0.8-1.5-1.6-2.7-1.8-2.7-0.3 0 0.4 2.4 1.5 5.2zm3 7.8c0 0.8 0.8 3.3 1.9 5.5q1.9 4 1.9 2c0-1.1-0.8-3.6-1.9-5.5-1-1.9-1.9-2.8-1.9-2zm19.8 1.3c-0.3 1.2-1.8 5.2-3.2 8.9-1.5 3.8-2.3 6.8-1.9 6.8 0.4 0 1.9-3.8 3.3-8.5 1.4-4.6 2.6-8.7 2.5-8.9 0-0.3-0.3 0.5-0.7 1.7zm585.1-1.6c10.8 0.2 28.8 0.2 40 0 11.3-0.1 2.5-0.2-19.5-0.2-22 0-31.2 0.1-20.5 0.2zm-37.9 1.3c-0.1 0.3 0.6 4 1.4 8.3 0.9 4.2 2.7 9.8 4 12.4 1.4 2.7 2.5 4.4 2.5 3.8 0-0.6-1.1-3.3-2.4-6-1.3-2.8-2.7-7.5-3.1-10.5-0.4-3-1.1-6.2-1.5-7-0.5-0.8-0.9-1.3-0.9-1zm-718.6 2.6c0.2 1.1 0.7 3.7 1.1 5.9 0.3 2.2 1.5 6.4 2.5 9.2 1.1 2.9 2.3 5.3 2.7 5.3 0.4-0.1-0.2-2.2-1.4-4.8-1.2-2.6-2.4-7.3-2.7-10.5-0.4-3.1-1.1-6-1.7-6.3-0.6-0.4-0.8 0.1-0.5 1.2zm794.2 17.1c-0.8 1.6-2.8 4-4.5 5.5-1.8 1.6-2.7 2.8-2.2 2.8 0.6 0 2.8-2.1 5.1-4.8 2.2-2.6 4-5 4-5.5-0.1-0.4-0.3-0.7-0.5-0.7-0.3 0-1.1 1.2-1.9 2.7zm-311.3 17.3c0 4.7 0.2 6.5 0.4 4 0.2-2.5 0.2-6.3 0-8.5-0.2-2.2-0.4-0.2-0.4 4.5zm203.9 1.9c0.1 2.2 0.6 3.7 1 3.5 0.4-0.2 0.7-2 0.7-3.9 0-1.9-0.4-3.5-0.9-3.5-0.5 0-0.9 1.8-0.8 3.9zm14.3 15.3c-0.3 2.4-1.3 5.7-2.1 7.3-0.8 1.6-1.3 3.1-1 3.2 0.3 0.2 1.1-0.7 1.7-2 0.6-1.2 1.6-4.6 2.2-7.4 0.6-2.9 0.8-5.3 0.5-5.3-0.4 0-0.9 1.9-1.3 4.2zm-1117.6 110.3c4.7 4.7 8.8 8.5 9 8.5 0.3 0-3.2-3.8-7.7-8.5-4.5-4.7-8.5-8.5-9-8.5-0.4 0 3.1 3.8 7.7 8.5z"/>
		<path id="Path 4" fill-rule="evenodd" class="s1" d="m801 222h18v141h-18v-6c0-3.5-0.4-6-1-6-0.6 0-2.3 1.2-3.8 2.7-1.5 1.5-5.2 4.2-8.2 6.1-4 2.6-7.1 3.6-11.5 4.1-3.3 0.3-9.4 0.5-13.5 0.3-4.1-0.1-8.3-0.2-9.3-0.2-0.9 0-1.7-0.4-1.7-1 0-0.6-1-1-2.3-1-1.2 0-4.2-1.2-6.7-2.7-2.5-1.4-5.5-3.4-6.8-4.5-1.2-1-2.7-1.6-3.2-1.3-0.5 0.3-1-0.1-1-0.7 0-0.7-1.2-2.7-2.6-4.3-1.4-1.6-4-5.9-5.7-9.5-1.7-3.6-3.6-10-4.4-14.5-0.7-4.4-1.3-10.4-1.3-13.3 0-3.3-0.5-5.3-1.2-5.6-1-0.3-0.9-0.7 0.3-1.7 0.9-0.8 2-3.2 2.3-5.4 0.4-2.2 0.9-5.2 1.2-6.7 0.2-1.6 1.6-5.4 3.1-8.5 1.5-3.2 5.2-8.3 8.3-11.4 3-3.1 7.5-6.6 10-7.9 2.5-1.3 4.8-2.5 5.3-2.7 0.4-0.2 0.9-0.3 1.2-0.3 0.3 0 0.8-0.1 1.3-0.3 0.4-0.2 4.1-0.9 8.2-1.6 5.6-1 9-1 13.5-0.2 3.3 0.5 6.3 0.8 6.8 0.6 0.4-0.3 0.9-0.1 1.2 0.5 0.3 0.6 1.3 1 2.3 1 0.9 0 4.7 1.9 8.4 4.2 3.7 2.4 7 5.1 7.3 6.1 0.3 0.9 1.1 1.6 1.8 1.4 0.9-0.3 1.3-6.4 1.5-25.5zm-55.3 60.1c-2.1 2.4-3.7 4.6-3.7 4.9 0 0.2-1 2.7-2.2 5.5-1.3 2.7-2.2 5.3-2.1 5.7 0.1 0.4-0.3 1.5-1 2.3-1 1.2-1 1.5 0 1.5 0.7 0 0.9 0.5 0.6 1.2-0.4 0.7-0.7 5.5-0.8 10.6 0 5.1 0.2 9.6 0.4 9.8 0.3 0.3 0.5 0.8 0.6 1.2 0 0.4 1.3 3.4 2.9 6.7 1.5 3.3 5 8.1 7.7 10.7 2.7 2.6 5.3 4.5 5.8 4.3 0.6-0.3 1-0.2 1 0.2 0 0.4 2.4 1.4 5.3 2.1 3.4 0.9 7.5 1.2 11.5 0.8 3.4-0.4 7-1.1 8-1.6 0.9-0.5 2.1-0.7 2.6-0.3 0.5 0.4 0.7 0.2 0.3-0.5-0.4-0.7-0.2-1.2 0.3-1.2 0.6 0 2.6-1 4.5-2.3 2-1.2 3.7-2.9 4-3.7 0.3-0.9 1.6-2.8 3-4.3 1.4-1.5 2.3-2.7 2-2.7-0.2 0 0.5-2.6 1.7-5.8 1.6-4.4 2.2-8.1 2.2-15.8 0.1-7.6-0.3-11.1-1.7-14.5-1-2.4-2.6-6-3.5-7.9-0.9-2-3.3-5.1-5.3-7-2-2-5.6-4.5-8-5.8-3.3-1.7-6.4-2.3-12.6-2.5-6.5-0.2-9.5 0.2-14 1.9-4 1.5-6.9 3.5-9.5 6.5zm414.2-52.1h18.1l0.4 29.5 21.5 0.5v16l-21.5 0.5-0.2 32c-0.2 26.7 0 32.5 1.2 35.2 1.1 2.4 2.2 3.2 3.8 3.2 1.2-0.1 5.5-0.1 16.7 0.1v16l-12.5-0.3c-6.8-0.1-12.5-0.6-12.5-1 0-0.4-0.9-0.7-2-0.7-1.1 0-2.5-0.6-3.2-1.4-0.7-0.7-1.7-1.3-2.3-1.2-0.5 0-1.7-1.5-2.7-3.5-0.9-1.9-1.9-4.9-2.2-6.7-0.3-1.8-1-3.2-1.6-3.2-0.6 0-1-12.2-1-69h-18v-16h18zm496.8 26c7.3 0 10.8 0.5 17 2.5 4.2 1.4 9.3 3.6 11.2 5 2 1.3 5.4 4.3 7.8 6.7 2.3 2.3 4.9 5.4 5.7 6.8 0.8 1.3 2.1 3.8 2.9 5.5 0.8 1.6 2.4 6 3.5 9.7 1.6 5.1 2.1 9.4 2.1 17.8 0 8.3-0.5 12.6-2.1 17.7-1.1 3.7-2.7 8.1-3.5 9.8-0.8 1.6-2.1 4.1-2.8 5.5-0.8 1.3-4.3 5.2-7.8 8.5-4.8 4.5-8.3 6.7-13.9 8.9-5.8 2.2-9.5 2.9-17.4 3.3-7.8 0.4-11.3 0.1-16.3-1.4-3.6-1-6.6-2.2-6.8-2.6-0.2-0.4-1-0.7-1.9-0.7-0.8 0-3.4-1.3-5.7-2.9-2.4-1.6-5.2-3.8-6.3-4.8-1.1-1-3.7-4.1-5.7-6.8-2-2.8-3.7-5.5-3.7-6 0-0.6-1-3.1-2.2-5.5-1.2-2.7-2.5-8.3-3.1-13.5-0.6-5.7-0.6-12.6 0-18.5 0.6-6.1 1.7-11.2 3.1-14 1.2-2.5 2.2-4.9 2.1-5.3 0-0.4 1.5-2.9 3.3-5.5 1.8-2.6 4.1-5.6 5.2-6.7 1.1-1.1 4.3-3.6 7-5.5 2.8-2 8.2-4.5 12-5.7 5-1.6 9.7-2.2 16.3-2.3zm-9.8 18c-1.9 0.5-4.6 1.7-5.9 2.7-1.3 1-3.6 3.1-5.2 4.8-1.5 1.6-4 5.2-5.4 8-1.8 3.4-2.8 7.5-3.3 13-0.5 4.4-0.5 11.1-0.1 15 0.4 4.1 1.7 9.2 3.2 12.5 1.5 3 3.9 6.8 5.6 8.5 1.6 1.6 3.7 3.5 4.5 4.2 0.9 0.7 3.5 2 5.9 2.9 2.3 0.8 6.7 1.6 9.7 1.7 3.1 0.1 7.7-0.5 10.4-1.3 2.6-0.9 5.6-2.2 6.5-3.1 0.9-0.8 2.4-1.8 3.4-2.2 0.9-0.4 2-1.6 2.2-2.7 0.3-1.1 1-2 1.5-2 0.6 0 2-2.2 3.2-4.8 1.2-2.6 2.7-7 3.5-9.7 0.7-2.8 1.3-8 1.3-11.5 0-3.6-0.6-8.8-1.3-11.5-0.7-2.8-2.3-7.2-3.5-9.8-1.2-2.6-2.6-4.7-3.2-4.7-0.5 0-1.2-0.9-1.5-2-0.2-1.1-1.3-2.4-2.2-2.7-1-0.4-2.8-1.7-4.1-2.8-1.3-1.1-4.9-2.6-8-3.2-3.1-0.7-6.6-1.2-7.7-1.2-1.1 0.1-2.9 0.3-4 0.6-1.1 0.2-3.5 0.8-5.5 1.3zm124-17.7c8.7 0.3 11.5 0.9 16.3 3 3.1 1.5 5.7 3.1 5.7 3.7 0 0.5 0.9 1.2 2 1.5 1.1 0.2 2 0.9 2 1.5 0 0.5 0.9 2.2 2.1 3.7 1.1 1.5 2.6 5.5 3.4 8.8 1.1 4.6 1.5 14.4 1.5 82.5h-18v-37c0-33.2-0.1-37.4-1.7-40.8-1-2-3.1-5-4.8-6.5-1.7-1.5-5.1-3.1-8-3.8-3.7-0.8-6.7-0.7-11.5 0.1-3.6 0.7-8.2 2.4-10.5 3.8-2.2 1.5-4.2 3.1-4.6 3.7-0.3 0.5-1.3 1.8-2.2 2.7-0.9 1-1.7 2.1-1.6 2.5 0 0.4-0.8 2.3-1.8 4.3-1.6 3.1-1.8 7.2-2.3 71h-18v-102h17v6c0 4.9 0.3 5.9 1.5 5.4 0.9-0.3 2.1-1.7 2.8-3 0.7-1.4 1.7-2.5 2.2-2.5 0.5 0.1 2-0.9 3.2-2.2 1.2-1.2 5.1-3.3 8.5-4.5 5.5-2 7.8-2.2 16.8-1.9zm95.8-0.3c6.3 0 9.9 0.6 15.5 2.5 4 1.4 8.1 3.4 9.2 4.5 1.1 1.1 2.4 1.9 2.8 1.9 0.4 0.1 2.1 1.4 3.7 3.1 1.7 1.6 3 3.3 3 3.7 0 0.4 0.7 1.4 1.6 2.3 0.9 0.8 3 4.4 4.7 8 1.7 3.5 3.4 8.5 3.9 11 0.4 2.4 1.3 8.1 1.8 12.5 0.6 4.4 0.9 8.5 0.6 9.2-0.4 1-9.1 1.3-76.6 1.3l0.6 3.7c0.4 2.1 1.3 6 2 8.8 1 3.5 2.8 6.5 6.1 10 3.4 3.6 6.4 5.6 10.3 7 3.6 1.2 8 1.9 12.5 1.9 5.4-0.1 8.3-0.7 12.5-2.7 3.2-1.4 6.7-4.1 8.3-6.1 1.5-2 2.7-4.1 2.7-4.6 0-0.6 0.6-2.2 1.3-3.6 1.2-2.4 1.6-2.5 17.7-2.4v3.5c0 2-1.4 6.1-3.2 9.7-1.8 3.4-5.3 8.2-7.8 10.8-2.4 2.5-6.5 5.5-9 6.6-2.4 1.2-6.6 2.9-9.2 3.7-3 1.1-8 1.7-13.5 1.7-4.8-0.1-11-0.7-13.8-1.4-2.7-0.8-7-2.4-9.5-3.6-2.4-1.1-5.4-2.7-6.5-3.3-1.1-0.7-3.4-2.7-5.2-4.5-1.8-1.8-3.2-3.6-3.2-4 0-0.4-0.7-1.4-1.6-2.2-0.9-0.9-2.7-4-4.1-7-1.3-3.1-3.1-8.2-3.8-11.5-0.8-3.3-1.7-9-2.1-12.5-0.5-4.6-0.2-9.2 1-15.5 1.1-5.6 3.1-11.9 5.4-16.5 2-4 5.4-9.2 7.6-11.5 2.2-2.2 6-5.4 8.4-7.1 2.5-1.6 7.4-3.9 11-5.1 4.6-1.6 9.1-2.3 14.9-2.3zm-15.5 19.8c-1.3 0.6-2.3 1.6-2.3 2.2 0 0.5-0.6 1-1.5 1-0.8 0-1.8 0.8-2.1 1.7-0.4 1-1.5 2.7-2.5 3.8-1 1.1-2.5 4.2-3.3 7-0.9 2.7-1.6 5.8-1.6 6.7 0 1.6 2 1.8 28 1.8 21.8 0 28-0.3 28-1.3 0-0.7-0.7-3.5-1.5-6.2-0.8-2.8-2.6-6.6-3.9-8.5-1.4-2-4.4-4.9-6.8-6.6-2.3-1.7-6.6-3.6-9.5-4.2-2.9-0.7-6.1-1.2-7-1.1-1 0-4 0.6-6.8 1.3-2.7 0.6-6 1.7-7.2 2.4zm-1191.8-17.3c5 0.2 10.2 0.7 11.5 1 1.4 0.4 3.2 0.7 4 0.8 0.9 0.2 2.1 0.6 2.8 1 0.7 0.3 1.5 0.4 1.7 0.2 0.3-0.3 1.5 0.3 2.7 1.2 1.2 1 3.5 2.9 5 4.3 1.5 1.3 2.9 2.4 3 2.3 0.2-0.2 1.1 1.9 2.1 4.5 1.6 4.1 1.8 8.8 2 38.2 0.2 27.8 0.5 33.9 1.7 35.8 1.3 2 2.2 2.3 11 1.7v12.5l-3.7 1.2c-2.1 0.6-6.7 1.2-10.3 1.1-4 0-6.6-0.4-6.7-1.2-0.2-0.6-0.7-0.9-1.3-0.6-0.5 0.2-2.2-1.4-3.7-3.8-1.5-2.3-2.6-5-2.5-6 0.1-0.9-0.2-2-0.8-2.2-0.5-0.3-1.5 0.4-2.2 1.5-0.7 1.1-1.7 2-2.3 2-0.5 0-2 1.1-3.2 2.5-1.3 1.3-2.6 2.4-3 2.3-0.4-0.1-2.3 0.5-4.3 1.4-1.9 0.9-4.4 1.9-5.5 2.3-1.1 0.4-3.3 1-5 1.2-1.6 0.3-7.5 0.5-13 0.6-9.4 0.1-10.3-0.1-16.9-3.4-4.6-2.3-8.2-5-11-8.3-3.9-4.7-4.1-5.1-4.3-12.7-0.2-4.9-0.7-7.7-1.3-7.4-0.5 0.2-1 0.2-1 0 0-0.3 0.5-1.3 1-2.3 0.5-0.9 1.8-3.8 3-6.2 1.1-2.5 3.1-5.7 4.4-7 1.2-1.4 3.8-3.4 5.7-4.4 1.9-1.1 3.9-2.4 4.4-3 0.6-0.6 2.2-1.2 3.5-1.4 1.4-0.1 4-0.4 5.8-0.7 1.8-0.3 3.2-1 3.2-1.5 0-0.6 0.4-0.8 0.8-0.6 0.4 0.3 2.3 0 4.2-0.5 2-0.6 6.5-1.2 10-1.4 3.6-0.2 9.5-1.1 13-2 3.6-0.9 7.6-2.1 8.9-2.8 1.3-0.7 3-2.5 3.7-4 0.8-1.5 1-2.5 0.4-2.2-0.5 0.3-1-1-1-3 0-2 0.5-3.3 1-3 0.6 0.2 0.9-0.1 0.7-0.8-0.1-0.7-1-2.6-1.9-4.2-0.8-1.7-3.4-4-5.7-5.3-3.5-1.9-5.7-2.3-15.8-2.4-8.6-0.1-12.7 0.3-15.3 1.4-1.9 0.8-5.2 3.1-7.2 5.1-2.1 2-3.8 4.5-3.9 5.4 0 1-0.2 2.2-0.3 2.8-0.2 0.5-0.3 1.8-0.4 2.7-0.1 1.5-1.3 1.8-9.2 1.8-7.3 0-9-0.3-9-1.5 0-0.9 0.5-1.5 1-1.5 0.6 0 0.8-1 0.6-2.3-0.3-1.2 0.1-3.4 0.8-4.7 0.7-1.4 2.8-5.2 4.5-8.5 1.7-3.3 3.1-5.7 3.1-5.3 0 0.4 1.2-0.2 2.5-1.5 1.4-1.2 2.9-2.3 3.3-2.3 0.4-0.1 3-1.1 5.7-2.4 2.8-1.3 6.2-2.5 7.5-2.8 1.4-0.2 4.8-0.8 7.5-1.2 2.8-0.5 9.1-0.7 14-0.5zm11.5 54.7c-1.3 0.2-3 0.6-3.7 1-0.7 0.4-3.9 0.9-7 1.1-3.2 0.2-6.4 0.6-7.2 0.8-0.7 0.3-2.8 0.6-4.5 0.7-1.7 0-5.3 0.7-8.1 1.3-2.7 0.7-5.6 2-6.5 2.7-0.8 0.8-2.3 1.8-3.2 2.3-1 0.5-2.7 2.7-3.8 4.9-1.1 2.2-1.9 5.4-1.9 7.2 0.1 1.8 0.5 4.4 0.9 5.8 0.5 1.3 0.9 2.1 0.9 1.7 0.1-0.4 1.5 0.7 3.2 2.5 1.6 1.8 3 2.9 3 2.5-0.1-0.4 1.5-0.1 3.4 0.8 2 0.8 5.9 1.5 8.8 1.5 2.9 0 7.8-0.6 11-1.3 3.2-0.7 5.7-1.6 5.7-2 0-0.4 0.6-0.7 1.3-0.7 0.7 0 2.1-0.9 3.2-2 1.1-1.1 2.4-1.8 2.8-1.5 0.4 0.3 1.2-0.5 1.9-1.8 0.6-1.2 2.2-3.5 3.5-5 1.3-1.5 2.1-3.2 1.8-3.7-0.2-0.6 0-1.3 0.5-1.5 0.6-0.3 1-1 1-1.5 0-0.6-0.4-0.8-1-0.5-0.6 0.3-0.9-2.8-0.7-8.5 0.1-5 0.2-9 0.2-9 0 0-0.6 0.4-1.5 0.9-0.8 0.5-2.6 1.1-4 1.3zm5.5-2.2q0 0 0 0 0 0 0 0zm305.5-52.5c7.4 0.1 13.9 0.8 18 2 3.6 1 8.1 2.8 10 4 2 1.1 4.5 3.4 5.7 5 1.2 1.6 2.7 4.3 3.3 6 0.8 2 1.1 13.5 1.1 36.5-0.1 30.5 0 33.7 1.7 35.8 1.5 2.1 2.4 2.4 11.3 1.7l-0.6 12.9-5.5 1.3c-3 0.7-7.6 1-10.2 0.8-2.6-0.3-4.8-1-4.8-1.5 0-0.6-0.8-1.2-1.7-1.5-1-0.3-2.6-1.8-3.5-3.5-1-1.7-1.8-3.9-1.8-5 0-1.1-0.3-2.2-0.7-2.5-0.4-0.2-2.6 1.2-4.8 3.2-2.2 2-6 4.7-8.5 6-2.4 1.3-5.8 2.6-7.5 2.9-1.6 0.3-3.6 0.7-4.5 0.9-0.8 0.2-1.5 0.4-1.5 0.5 0 0.1-4.4 0.3-9.8 0.3-5.4 0.1-10-0.2-10.3-0.6-0.2-0.4-0.7-0.5-1.1-0.3-0.4 0.2-2.4-0.1-4.4-0.7-2-0.7-5.6-2.6-8-4.3-2.4-1.6-5.5-4.6-7-6.5-1.4-1.9-3.1-5.6-3.7-8.2-0.7-2.6-1.2-6.4-1.2-8.5 0.1-2 0.7-5.6 1.5-8 0.9-2.3 2.5-5.7 3.8-7.5 1.2-1.7 2.8-3.8 3.4-4.5 0.7-0.7 1.4-1.2 1.8-1.2 0.3 0 2.2-1.1 4.3-2.5 2-1.3 4.9-2.7 6.2-2.9 1.4-0.3 5.9-1.5 10-2.7 4.2-1.2 10-2.2 13-2.4 3.1-0.2 5.8-0.4 6-0.5 0.3-0.2 1-0.2 1.5-0.1 0.6 0.1 1.7-0.2 2.5-0.5 0.9-0.4 2-0.8 2.5-0.9 0.6 0 3.1-0.5 5.5-0.9 2.6-0.5 5.5-1.9 6.8-3.3 1.2-1.3 2.3-2.9 2.4-3.6 0-0.7 0-1.7-0.1-2.2-0.1-0.6 0.4-1.4 1.1-1.8 1-0.5 1-0.7 0.1-0.7-0.7 0-1.1-1-0.9-2.3 0.2-1.2-0.4-3.4-1.3-4.9-0.9-1.4-2.7-3.5-4.1-4.6-1.3-1.1-3.4-2.2-4.5-2.6-1.1-0.3-7.1-0.7-13.5-0.8-9.5-0.1-12.1 0.2-15.4 1.7-2.2 1.1-5.4 3.3-7.1 5-2.3 2.2-3.3 4.2-4.5 12.5h-9c-7.3 0-9-0.3-9-1.5 0-0.9 0.4-1.6 0.9-1.8 0.5-0.1 1.2-2 1.5-4.2 0.3-2.2 1.9-6.2 3.6-8.8 1.7-2.6 3-5.2 3-5.7 0-0.6 0.5-1 1.1-1 0.5 0 1.8-0.8 2.7-1.8 1-1 4.3-3.1 7.5-4.6 3.2-1.5 7.2-3 9-3.3 1.8-0.3 3.9-0.9 4.7-1.3 0.9-0.4 6.7-0.7 13-0.5zm14 54.9c-1.9 0.4-4.1 0.8-5 1-0.8 0.2-1.5 0.5-1.5 0.6 0 0.1-2 0.3-4.5 0.4-2.4 0.1-5.1 0.4-5.8 0.7-0.7 0.3-3.1 0.6-5.3 0.7-2.1 0.1-5.2 0.8-6.9 1.7-1.6 0.8-3.2 1.5-3.5 1.5-0.2 0-0.9 0-1.5 0-0.5 0-2.3 1.1-4 2.5-1.6 1.3-3 2.1-3 1.7 0-0.4-0.9 1.3-2.1 3.8-1.3 3-1.9 5.8-1.6 8.5 0.2 2.3 1.4 5.1 2.8 6.7 1.3 1.6 4.7 3.7 7.4 4.9 4.1 1.7 6.3 2 12 1.6 3.9-0.3 8.7-0.9 10.8-1.4 2.1-0.5 3.8-1.2 3.8-1.6-0.1-0.4 0.5-0.7 1.2-0.7 0.7 0 2.2-0.9 3.5-2 1.2-1.1 2.5-1.7 2.8-1.3 0.3 0.4 0.5 0.3 0.4-0.2 0-0.6 1.4-2.6 3-4.5 1.7-2 3.1-4.4 3.2-5.5 0-1.1 0-2.4 0-2.8-0.1-0.4 0.2-0.7 0.6-0.7 0.4 0 0.6-4.1 0.4-9-0.1-5-0.6-9-1-9-0.4 0-1.2 0.4-1.7 0.9-0.5 0.5-2.5 1.2-4.5 1.5zm106.5-55c3.9 0.3 8.6 0.8 10.5 1.2 2 0.4 5.9 2.2 8.8 4 2.9 1.9 6.3 4.8 7.6 6.6 1.3 1.8 2.9 4.3 3.5 5.5 0.6 1.3 1.4 4.9 1.7 8 0.3 3.5 1.1 6.1 2 6.5 1.2 0.6 1.4 6.6 1.4 72.8l-18.5-0.5-0.2-36.8c-0.2-20.2-0.6-36.7-1-36.8-0.4 0-0.7-1.1-0.5-2.5 0.2-1.6-0.8-3.5-3-5.7-1.8-1.8-4.6-4.1-6.3-5.2-2.3-1.4-5-1.8-12.5-1.8-6.6 0-10.4 0.5-12.5 1.6-1.6 0.9-3.9 2-5 2.5-1.1 0.5-3.8 2.9-6 5.4-2.2 2.4-4.6 6.2-5.4 8.4-1.1 3-1.5 11.4-2.1 71.4h-18v-103h17v7c0 3.8 0.4 7 0.8 7 0.5 0 2.5-1.7 4.6-3.8 2-2 3.7-4.1 3.7-4.5 0-0.4 0.3-0.7 0.7-0.6 0.4 0.1 3-0.9 5.7-2.2 2.8-1.3 5.4-2.5 5.8-2.6 0.4-0.2 0.8-0.4 1-0.4 0.1 0 2-0.3 4.2-0.6 2.2-0.2 4.3-0.7 4.5-1 0.3-0.3 3.7-0.2 7.5 0.1zm161.5 0c6.3 0.1 12 0.4 12.5 0.7 0.6 0.4 2.7 0.9 4.8 1.3 2 0.3 4 0.6 4.2 0.6 0.3 0 2 0.9 3.8 2.1 1.8 1.2 4.5 3.4 6.1 4.8 1.6 1.4 3.9 4.8 5.2 7.6 2.4 4.9 2.4 5.4 2.5 38 0 27.6 0.2 33.3 1.5 35 1.3 1.7 2.1 1.9 10.4 0.5v6.5c0 5.8-0.2 6.5-2.2 7.2-1.3 0.3-2.6 0.6-3 0.5-0.4-0.1-0.8 0.1-0.8 0.5 0 0.4-1.9 0.9-4.2 1-2.4 0.2-6.2-0.3-8.7-1-2.4-0.7-5.2-2.3-6.3-3.7-1-1.4-1.8-3.7-1.8-5 0.1-1.4-0.5-3.1-1.2-3.7-1-1-2.1-0.5-5.4 2.5-2.2 2-4.5 3.8-5 4-0.5 0.1-3.3 1.5-6.4 2.9-3 1.5-7.7 2.9-10.5 3.2-2.7 0.3-8.3 0.5-12.5 0.3-4.1-0.1-8.4-0.3-9.5-0.5-1.1-0.2-2.9-0.7-4-1.1-1.1-0.5-3.2-1.3-4.8-2-1.5-0.6-2.7-1.5-2.7-1.9 0-0.4-0.3-0.5-0.7-0.3-0.4 0.3-2.2-1.3-4-3.5-1.8-2.1-4-5.8-4.9-8.2-0.9-2.3-1.5-6.6-1.5-9.5 0.1-3.6-0.3-5.2-1.1-5.2q-1.2-0.1 0.2-1c1-0.5 1.3-1.5 0.8-2.4-0.4-0.9-0.4-1.6 0-1.6 0.4 0 1.3-1.5 1.9-3.3 0.7-1.8 2.9-5 5-7.1 2.1-2.1 6.1-4.9 8.8-6.3 2.8-1.3 6-2.4 7.3-2.3 1.2 0 2.2-0.5 2.2-1 0-0.6 0.5-0.8 1-0.5 0.6 0.2 1.7-0.1 2.6-0.8 0.8-0.7 1.5-0.9 1.5-0.5 0 0.4 1.4 0.3 3.2-0.3 1.8-0.6 6.8-1.3 11.2-1.5 4.4-0.3 8.5-0.9 9-1.4 0.6-0.6 1.3-0.8 1.5-0.4 0.3 0.3 3-0.2 6-1.1 3.1-1 6.5-2.7 7.6-3.9 1.7-1.8 2-3.2 1.8-8.1-0.2-3.3-1-7-1.8-8.3-0.9-1.2-2.8-2.9-4.3-3.7-1.5-0.7-4.1-1.6-5.8-1.9-1.6-0.3-7.7-0.7-13.5-0.7-9-0.1-11 0.2-14.5 2-2.2 1.2-4.9 3.2-6 4.4-1.1 1.2-2.7 4.5-5 12.7h-8.7c-5.2 0-8.8-0.4-8.8-1 0-0.6 0.4-1.8 0.9-2.8 0.5-0.9 1.6-4.2 2.6-7.2 0.9-3.1 2.9-7.3 4.4-9.4 1.5-2.2 5.2-5.3 8.6-7.2 3.3-1.9 6.8-3.4 7.8-3.4 0.9 0 1.7-0.5 1.7-1 0-0.6 1.5-1 3.3-1 1.8-0.1 3.9-0.4 4.7-0.9 0.8-0.4 6.6-0.7 13-0.7zm14.5 55.1c-0.5 0.1-3.2 0.5-6 1-2.7 0.4-5.2 0.7-5.5 0.7-0.2 0-1.3 0.4-2.2 0.9-1.2 0.6-1.8 0.5-1.7-0.4 0-0.9-0.3-0.9-1.3-0.2-0.7 0.6-3.3 1.2-5.8 1.4-2.4 0.1-7.4 1.4-11 2.7-4.2 1.6-7.3 3.6-9 5.7-1.9 2.4-2.5 4.4-2.7 9.4-0.2 3.4 0.1 6.3 0.5 6.2 0.4 0 1.4 1.1 2.2 2.5 0.9 1.4 2.7 3.1 4 3.7 1.4 0.7 3.4 1.4 4.5 1.7 1.1 0.4 5.4 0.6 9.5 0.6 4.2 0 8.7-0.2 10-0.5 1.4-0.4 3.2-1 4-1.5 0.9-0.5 2.1-1 2.8-1.2 0.7-0.1 1.9-0.8 2.6-1.5 0.8-0.7 2.4-2 3.5-3 1.2-0.9 2.4-1.4 2.8-1 0.4 0.4 0.4 0.2 0-0.5-0.4-0.7-0.2-1.5 0.3-1.7 0.6-0.3 2-2.7 3.3-5.3 1.9-4 2.2-6.1 1.9-13.5-0.1-4.8-0.6-8.7-1-8.7-0.4 0-1.6 0.5-2.7 1.2-1.1 0.6-2.4 1.2-3 1.3zm93.6-54.9c6.6 0.1 10.9 0.7 14.4 2 2.8 1.1 6.8 3.3 9 5 2.2 1.7 4.7 3.9 5.5 4.8 0.9 0.9 1.9 1.6 2.3 1.6 0.4 0 0.7-2.7 0.7-12h19v49.5c0 43.8-0.2 49.7-1.6 51.2-0.8 1-1.4 2.7-1.3 3.8 0.1 1.1 0 2.6-0.3 3.5-0.3 0.8-1.2 3.7-1.9 6.5-0.7 2.7-2.7 7.4-4.4 10.5-1.8 3-4.7 6.7-6.6 8.1-1.8 1.5-6.3 4-9.9 5.7-3.5 1.7-6.8 2.9-7.2 2.6-0.4-0.2-0.8 0-0.8 0.6 0 0.5-0.4 0.7-1 0.5-0.5-0.3-4.2 0.1-8.2 0.8-6 1.1-8.6 1.1-14.8 0-4.1-0.7-9.3-1.5-11.5-1.8-2.4-0.4-6.7-2.5-10.9-5.3-3.8-2.6-8.2-6.3-9.8-8.2-1.6-2-3.1-5.3-3.4-7.5-0.3-2.2-1-4.1-1.5-4.3-0.5-0.1-0.9-0.7-0.9-1.2 0-0.6 3.6-1 17.5-1l1.4 3.2c0.8 1.8 2.6 4.3 4 5.6 1.5 1.3 4.2 3.2 6.1 4.2 2 1.1 3.9 1.6 4.3 1.2 0.4-0.4 1.3-0.2 2 0.4 0.8 0.7 5 1.1 11.7 0.9 7.8-0.2 11.5-0.7 14-2 2-1 3.8-2.1 4-2.4 0.3-0.4 1.4-1.1 2.4-1.6 1-0.6 1.8-1.5 1.8-2 0-0.6 0.5-1.3 1.2-1.7 0.6-0.3 2.7-4.3 4.6-8.8 3-6.9 3.3-8.3 2-9-1.2-0.7-1.2-0.9 0.3-1.4 1.2-0.4 1.7-1.7 1.7-4.1 0-2-0.4-3.5-1-3.5-0.5 0-1-1.2-1-2.5 0-1.4-0.2-2.5-0.5-2.5-0.2 0-2.7 2.2-5.5 5-2.7 2.7-5.4 5-6 5-0.5 0-2.9 0.9-5.2 2.1-2.4 1.2-5.1 2.5-6 3-1.1 0.5-1.8 0.5-1.8-0.1 0-0.7-1.1-0.6-3.2 0.1-2.5 0.9-5.1 0.9-10.5 0-4-0.6-10.3-2.5-14-4.3-3.7-1.7-7.1-3.7-7.5-4.5-0.4-0.7-1.2-1.1-1.8-0.8-0.5 0.2-2.2-1.2-3.7-3.3-1.5-2-3.1-3.8-3.5-4-0.4-0.1-0.8-0.7-0.8-1.2 0-0.6-0.8-1.9-1.7-2.9-1-1.1-3-5.6-4.5-10-1.5-4.5-2.5-8.6-2.3-9.1 0.3-0.6-0.3-1.9-1.2-3.1q-1.8-2-0.5-2c0.8 0.1 1.2-1.8 1.2-5.9 0-3.9-0.4-6.2-1.2-6.5-0.9-0.3-0.9-0.6 0.2-1.4 0.9-0.6 1.6-2.5 1.7-4.3 0.1-1.9 1.2-6.5 2.6-10.3 1.3-3.9 3.9-9.1 5.8-11.5 1.9-2.5 3.8-4.6 4.2-4.8 0.4-0.1 0.7-0.8 0.8-1.5 0-0.7 2.7-2.9 6-5 3.2-2 7.2-4.2 8.7-4.9 1.5-0.6 4.1-1.3 5.7-1.5 1.7-0.2 3.1-0.7 3.1-1.1 0.1-0.4 4.3-0.7 9.5-0.6zm-12.1 17.9c-1.9 1.1-4.7 3.2-6.2 4.7-1.5 1.5-3 2.4-3.3 2-0.3-0.4-0.5 0.1-0.5 1 0 1-0.3 1.9-0.7 2-0.4 0.2-1.9 3.4-3.3 7.3-1.8 5.2-2.5 9.4-2.7 16.5-0.2 8 0.1 10.5 2.3 16.5 1.4 3.8 3.4 8.2 4.5 9.7 1.1 1.5 1.9 3.2 1.9 3.8 0 0.5 0.8 1.3 1.8 1.6 0.9 0.4 2.6 1.5 3.7 2.5 1.1 1.1 2.7 2 3.5 2.2 0.9 0.1 2 0.5 2.5 0.9 0.6 0.3 4.2 0.6 8 0.6 4.4-0.1 8.8-0.8 11.8-2 2.6-1 4.7-1.6 4.7-1.3 0 0.2 1.8-1.3 4-3.5 2.2-2.2 4-4.5 4-5 0-0.6 0.4-0.8 0.8-0.6 0.4 0.3 1.5-1.2 2.5-3.2 1-2.1 2-4.4 2.1-5.2 0.2-0.9 0.6-2.7 1-4 0.4-1.4 0.9-6.6 1-11.5 0.1-5-0.3-11.1-1-13.5-0.7-2.5-1.1-4.9-0.8-5.3 0.2-0.4 0-0.7-0.6-0.7-0.5 0-1-0.8-0.9-1.8 0-0.9-0.9-2.6-2.1-3.7-1.1-1.1-2-2.5-2-3 0-0.6-2.3-2.7-5.2-4.7-2.9-2-6.6-4-8.3-4.4-1.6-0.4-5.6-0.8-8.7-0.8-3.2-0.1-6.8 0.1-8 0.4-1.3 0.4-3.8 1.5-5.8 2.5zm122.2-18.3c2.9-0.1 8 0.3 11.3 0.8 3.3 0.6 6.7 1.2 7.5 1.3 0.9 0.1 3.9 1.5 6.8 2.9 2.9 1.5 5.2 2.4 5.2 2 0-0.4 0.8 0.4 1.9 1.8 1 1.3 3.4 4.1 5.2 6.1 1.9 2 4.2 4.5 5.2 5.7 0.9 1.2 1.7 2.7 1.7 3.4 0 0.7 0.4 1.7 0.9 2.3 0.5 0.5 1.5 2.8 2.2 5 0.8 2.2 1.5 4.6 1.6 5.5 0.1 0.8 0.5 3.9 0.9 7 0.4 3 1.1 5.7 1.4 6 0.4 0.2 0.6 2.2 0 8h-79l0.4 7.2c0.3 5.4 1 8.4 2.9 11.8 1.4 2.4 4 5.8 5.9 7.4 1.8 1.6 5.2 3.7 7.6 4.7 2.3 1 4.6 1.8 5 1.7 0.4-0.1 1.6 0.2 2.7 0.7 1.1 0.4 5.6 0.6 10 0.3 6.1-0.3 9.4-1.1 13.5-3.1 4-1.9 6.4-4 8.8-7.5 1.8-2.6 3.2-5.7 3.2-7 0-2.2 0.3-2.2 9.5-2.2 5.7 0 9.5 0.4 9.5 1 0 0.5-0.6 1-1.5 1-0.8 0-1.2 0.4-1 1 0.3 0.5-0.6 3.6-2 6.7-1.6 3.8-4.9 8.2-9.2 12.7-3.7 3.8-7.1 6.8-7.5 6.7-0.4-0.1-1.9 0.5-3.3 1.4-1.3 0.8-3.7 1.7-5.2 2-1.5 0.3-4.8 0.9-7.3 1.2-2.4 0.4-6.9 0.7-10 0.7-3 0-8.2-0.3-11.5-0.5-4.6-0.4-7.8-1.6-13.9-5-4.4-2.4-9.5-6.3-11.5-8.5-2-2.2-5-7-6.8-10.5-1.8-3.5-3.5-7.8-3.7-9.4-0.2-1.7-0.9-5.1-1.5-7.5-0.6-2.5-1.6-4.9-2.3-5.3-1-0.6-1-0.9 0-1.5 0.8-0.5 1.3-2.8 1.2-6.7-0.1-3.3 0.6-9 1.5-12.5 0.9-3.6 3.1-9.4 4.8-13 1.9-3.7 5.7-8.9 9-12.2 3.1-3.2 6.2-5.8 6.7-5.8 0.6 0 2.5-1.1 4.3-2.3 1.8-1.3 5.4-2.7 8-3 2.6-0.4 4.9-1.1 5.1-1.5 0.3-0.4 2.9-0.8 5.8-1zm-11.7 18.8c-2.2 1.3-5.1 3.5-6.5 4.9-1.5 1.4-3.6 4.3-4.8 6.3-1.2 2.1-2.2 4.4-2.2 5.3 0 0.8-0.3 1.5-0.7 1.5-0.4 0-0.8 1.4-0.8 3.2v3.3l59.5 0.5c-0.9-6.6-2.3-10.6-3.8-13-1.4-2.5-4.2-6.1-6.1-8-2-1.9-4-3.3-4.6-3.2-0.5 0.1-1.3-0.3-1.7-1-0.4-0.8-1-1.4-1.5-1.4-0.4-0.1-1.4-0.4-2.3-0.8-0.8-0.4-4.7-0.8-8.8-0.9-4-0.1-8.2 0-9.5 0.3-1.2 0.3-4 1.7-6.2 3zm-640.2-17h19.2l2.9 8.7c1.5 4.8 3.8 11.5 5.1 14.8 1.2 3.3 3 8.2 3.9 11 0.9 2.7 1.8 5.9 2.1 7 0.2 1.1 2 6.2 3.9 11.5 1.9 5.2 4 10.8 4.7 12.5 0.7 1.6 2.4 6.3 3.8 10.4 1.5 4.1 3.2 7.6 3.9 7.7 0.7 0.2 1.2-0.2 1.2-0.9 0.1-0.7 0.9-3 1.9-5.2 1-2.2 3.2-7.9 4.8-12.5 1.6-4.7 4-11.5 5.2-15 1.3-3.6 2.5-7.5 2.7-8.8 0.2-1.2 1.3-4.5 2.4-7.2 1.1-2.8 1.8-5 1.5-5-0.2 0 0.7-2.5 2-5.5 1.4-3.1 2.7-6.5 3-7.8 0.2-1.2 1.5-5.2 5.3-15.2l17.2-0.5-0.6 2.7c-0.4 1.5-1.7 5.1-3 8-1.3 2.9-2.4 5.8-2.4 6.5 0 0.7-1.1 3.5-2.4 6.3-1.3 2.7-3.3 7.7-4.5 11-1.2 3.3-3.1 8.2-4.2 11-1.1 2.7-2.1 5.6-2.3 6.5-0.1 0.8-0.7 2.8-1.4 4.5-0.7 1.6-1.8 4.3-2.6 6-0.8 1.6-2.6 5.6-4 8.7-1.4 3.2-2.6 6.4-2.6 7.3 0 0.8-0.6 2.9-1.4 4.7-0.8 1.8-2.7 6.4-4.1 10.3-1.4 3.8-2.7 7.5-2.8 8.2-0.1 0.9-2.8 1.3-9.4 1.3-9.1 0-9.3-0.1-9.8-2.5-0.3-1.5-1.2-2.6-2.2-2.6-1-0.1-1.2-0.3-0.5-0.5 1-0.3 1-0.7 0-2-0.7-0.8-0.9-1.5-0.5-1.5 0.4 0-0.4-2.4-1.8-5.4-1.3-3.1-2.5-6.1-2.5-6.8 0.1-0.7-0.9-3.3-2.1-5.7-1.2-2.5-2.3-5.4-2.5-6.5-0.1-1.1-1.5-4.7-3-8-1.5-3.3-3.2-6.4-3.8-6.8-0.6-0.4-0.7-0.7-0.3-0.7 0.4 0 0-1.7-0.9-3.8-0.9-2-1.8-4.9-2.1-6.2-0.2-1.4-0.8-3-1.2-3.5-0.4-0.6-1.6-3.5-2.6-6.5-1-3.1-2.4-6.7-3.1-8-0.8-1.4-1.4-3-1.4-3.5 0-0.6-0.8-2.8-1.9-5-1.1-2.2-3.1-7.1-4.4-10.8z"/>
		<path id="Path 5" class="s3" d="m450.5 444.9c-20.9 20.8-53.2 53.1-71.7 71.7-18.6 18.7-33.8 34.2-33.8 34.7 0 0.4 267.9 0.6 595.3 0.5l595.2-0.3v-144l-1047.1-0.5z"/>
		<path id="Path 6" class="s2" d="m1503.2 278.9c-0.1 0.6 1 2 2.5 3.2 1.6 1.1 4 4.2 5.5 6.7 1.5 2.6 2.8 4.3 2.8 3.7 0-0.5-1.1-2.8-2.5-5-1.3-2.2-3.7-5.3-5.3-6.8-1.6-1.6-2.9-2.4-3-1.8zm-157.5 12.1c-0.9 2.2-1.9 5.1-2.2 6.5-0.3 1.4-0.4 2.5-0.3 2.5 0.2 0.1 1.2-2.7 2.3-6 1.2-3.4 2-6.3 2-6.5 0-0.2-0.8 1.4-1.8 3.5zm-715.5 31.5c-1.2 0.8-3.1 3.3-4.2 5.5-1.1 2.2-2 5.5-2 7.3 0 1.7 0.4 3.9 0.9 4.7 0.6 1 0.8-0.1 0.4-3-0.4-3.2 0-5.5 1.2-8 0.9-1.9 2.9-4.5 4.3-5.7 1.5-1.3 2.5-2.3 2.2-2.3-0.3 0-1.5 0.7-2.8 1.5zm712.8-1c0 0.3 1 3.3 2.2 6.8 1.2 3.4 3.2 7.3 4.6 8.7l2.4 2.5c-3.9-6.2-5.7-10.4-6.6-13.2-0.8-2.9-1.8-5.3-2.1-5.3-0.3 0-0.5 0.2-0.5 0.5zm-391.6 7c-1.2 1.6-1.7 3.8-1.5 6.2 0.1 2.1 0.6 4.7 1.1 5.8 0.5 1.3 0.6 0.2 0.3-3-0.4-3.4-0.1-6 1-8.2 0.8-1.8 1.4-3.3 1.2-3.3-0.2 0-1.1 1.1-2.1 2.5zm332.3 3.8c-1 2.3-2.8 5.3-4 6.7-1.2 1.4-3.3 3.3-4.7 4.3-1.4 0.9-2 1.7-1.5 1.7 0.5 0.1 2.6-1.4 4.6-3.2 2-1.8 4.5-5.2 5.7-7.5 1.2-2.4 2.1-4.7 1.9-5.3-0.2-0.5-1.1 0.9-2 3.3zm-148.2 85.8c-1.1 0.5-2.6 2-3.2 3.4-0.7 1.4-1.3 3.3-1.3 4.3-0.1 0.9 0.8 2.9 2 4.5 1.5 2.1 2.8 2.7 5.8 2.7 2.6 0 4.4-0.6 5.9-2.2 1.3-1.3 2.3-3.5 2.3-5 0-1.6-0.3-3.5-0.7-4.4-0.5-0.9-2-2.3-3.5-3-1.6-0.8-3.4-1.4-4-1.3-0.7 0-2.2 0.5-3.3 1zm301.5 47.9v47l12.5-0.5 0.5-93.5h-13zm32.2-0.2l0.3 46.7 12.5 0.5v-94h-13zm-569.3-30.7v9h-11v11h11c0.5 46.5 0.7 48.7 2.6 52 1.1 1.9 3.6 4.2 5.5 5.2 2 1 5.7 1.7 8.7 1.7 2.9 0 6.8-0.6 8.7-1.4 2.1-0.9 3.5-2.3 3.6-3.3 0-1-0.6-3.2-1.3-5.1-0.9-2.3-1.7-3.1-2.8-2.6-0.8 0.4-2.1 0.9-3 1.2-0.8 0.2-2.6 0.2-4-0.1-1.3-0.3-3-1.7-3.7-3.1-0.9-1.8-1.3-8.8-1.3-23.5v-21h14v-11h-14v-18h-13zm193 0v9h-12v11l11.5 0.5c1 45.9 1.3 50.4 2.7 52.5 0.9 1.3 3.3 3.2 5.2 4.2 2 1 5.9 1.8 8.6 1.8 2.8 0 6.6-0.7 8.5-1.5 2-0.9 3.8-2 4-2.5 0.3-0.6-0.2-2.9-1.2-5.1-1.3-3-2.2-3.9-3.3-3.4-0.8 0.4-2.8 1-4.5 1.2-2.1 0.3-3.5-0.2-5-1.8-1.8-2-2-3.7-2.2-24.1l-0.3-21.8h14v-11h-14v-18h-12zm-127.6 8c-2.7 0.4-6.7 1.5-8.9 2.4-2.2 0.9-5.5 3-7.5 4.5-1.9 1.5-4.9 5-6.7 7.6-1.7 2.7-3.9 7.9-4.8 11.5-1.1 4.3-1.5 8.5-1.2 12.5 0.3 3.3 1.5 8.4 2.7 11.5 1.2 3 3.7 7.4 5.6 9.7 2.2 2.8 5.8 5.4 10.2 7.5 6.3 3.1 7.3 3.3 17.7 3.3 10 0 11.5-0.3 16.5-2.8 3.1-1.5 6.6-3.5 7.9-4.5l2.4-1.7-5.8-8.5c-5.4 3.9-9.4 5.7-12.5 6.6-3.7 1.1-7.2 1.4-11 1-3-0.4-7.3-1.7-9.7-3.1-2.3-1.4-5.3-4-6.5-5.8-1.2-1.8-2.8-5.2-3.5-7.5l-1.3-4.2h55c0-4.3-0.4-8.2-1-11.5-0.7-3.3-2.2-8.3-3.5-11-1.3-2.8-4.4-7-6.9-9.3-2.5-2.3-6.2-5-8.3-5.9-2.1-0.9-6.1-1.9-8.9-2.2-2.8-0.4-7.3-0.4-10-0.1zm418 0.1c-3.8 0.4-8.1 1.8-12.2 4-3.5 1.8-7 4-7.8 4.9-1.2 1.3-1.1 2 0.8 5.5 1.2 2.2 2.3 4.1 2.5 4.2 0.2 0.1 2.5-1.2 5.1-3.1 2.6-1.8 7.2-3.8 10.2-4.6 3.2-0.7 7-1 9-0.6 2 0.4 4.8 1.4 6.3 2.1 1.5 0.8 3.6 2.9 4.7 4.7 1.5 2.5 2 5 2 10.5v7.3c-6.5-4.7-10.7-6.6-13.5-7.2-2.7-0.6-7.9-0.9-11.5-0.5-4.6 0.4-7.7 1.3-10.9 3.3-2.8 1.8-5.3 4.5-6.8 7.4-1.6 3-2.4 6.3-2.5 10 0 3 0.5 7.1 1.1 9.2 0.7 2.3 2.8 5.2 5.5 7.5 2.4 2.1 6.1 4.3 8.2 5 2.2 0.7 6.2 1.2 8.9 1.2 2.8 0 6.6-0.4 8.5-0.9 2-0.6 5.7-2.4 8.3-4l4.7-3v7l12.5-0.5c0-50.2-0.2-54.5-1.6-57-0.9-1.7-2.9-4.3-4.5-5.8-1.6-1.6-4.4-3.6-6.4-4.4-1.9-0.9-6-1.9-9.1-2.3-3.1-0.3-8.2-0.3-11.5 0.1zm-670.4 0.9c-1.3 0.6-4.6 2.6-7.2 4.5-2.6 1.9-5 3.1-5.3 2.7-0.3-0.4-0.5-2.2-0.5-4v-3.2h-12v94h12c0-26.4 0.4-34.1 0.8-34.1 0.4 0 1.9 1.2 3.2 2.6 1.4 1.5 4.3 3.6 6.5 4.8 3.2 1.7 5.8 2.1 12.5 2.1 7.6 0 9.1-0.3 13.9-2.9 3-1.7 6.7-4.8 8.3-7 1.6-2.2 3.9-6.5 5-9.5 1.6-4.2 2.2-7.9 2.2-15 0.1-6.1-0.5-11.5-1.6-15-0.9-3.1-3.1-7.6-5-10-1.8-2.5-5.6-5.9-8.2-7.5-4.3-2.7-5.9-3.1-13.5-3.3-4.7-0.1-9.7 0.3-11.1 0.8zm80.5 0.8c-2.2 1-5.9 3.5-8.3 5.7l-4.3 4 0.1-10.5h-12v69h12c0-47 0-47.6 2.3-50.5 1.2-1.6 4.5-4 7.2-5.2 2.8-1.3 6.7-2.3 8.8-2.3h3.7c0-11.9 0-12-2.7-12-1.5 0-4.6 0.8-6.8 1.8zm39.5 0.4c-3.6 1.4-7.2 3.8-10.5 7.2-3.3 3.4-5.7 7-7.2 11.1-1.2 3.3-2.5 8.2-2.8 11-0.4 2.7-0.1 7.6 0.5 11 0.7 3.3 2.3 8.1 3.7 10.7 1.3 2.6 3.9 6.3 5.8 8.3 2 1.9 5.9 4.7 8.8 6.2 4.7 2.4 6.3 2.7 15.7 2.7 9.5 0 11-0.3 15.8-2.7 2.9-1.5 6.9-4.4 8.9-6.5 2.1-2.1 4.8-6 6-8.7 1.3-2.8 2.8-7.7 3.3-11 0.7-4.1 0.7-8.1 0-12.5-0.6-3.7-2.5-9.1-4.3-12.5-1.7-3.2-5-7.4-7.2-9.2-2.2-1.9-6.3-4.3-9.2-5.4-3.7-1.4-7.7-1.9-13.5-1.9-5.9 0-9.8 0.7-13.8 2.2zm203-0.1c-3.5 1.4-7.2 4-10.5 7.3-3.4 3.5-5.7 7.1-7.4 11.6-2 5.1-2.5 8.2-2.4 14.5 0 5.7 0.7 9.6 2.4 14 1.4 3.6 4.1 7.9 6.9 10.8 2.5 2.7 6.8 6.1 9.5 7.5 4.5 2.3 6.2 2.6 15.5 2.6 9.9 0 10.9-0.1 15.9-2.9 3-1.7 6.3-4.2 7.3-5.5 1.1-1.4 1.9-2.8 1.9-3-0.1-0.3-1.9-2-4.1-3.8l-4-3.2c-3.1 3.1-5.9 4.9-8.2 6.1-3.2 1.6-5.6 2-9.9 1.7-4.3-0.3-6.7-1.1-10-3.4-2.7-1.9-5.4-5-7.1-8.2-2.2-4.3-2.8-6.6-2.8-12.5-0.1-4.6 0.5-8.7 1.5-11.2 0.9-2.2 2.9-5.3 4.3-6.9 1.5-1.6 4.5-3.7 6.7-4.8 2.2-1 6.2-1.8 8.8-1.8 2.6 0 6.4 0.6 8.5 1.5 2.1 0.9 4.9 2.7 6.2 4l2.5 2.4 8-7.9c-4.1-4.3-7.5-6.7-10.1-8-4-2.1-6.5-2.6-14.4-2.8-7.7-0.2-10.5 0.2-15 1.9zm158-1.5c-0.8 0.3-3.3 1.5-5.5 2.5-2.2 1.1-5 2.9-6.2 3.9-1.2 1.1-2.7 1.7-3.3 1.5-0.5-0.3-1-2.1-1-4v-3.5h-12v69h12c0.4-46.1 0.6-49.1 2.2-51.4 1-1.5 4.4-3.8 7.6-5.3 4.7-2.2 6.8-2.6 11.4-2.3q5.6 0.4 7.9 2.5c1.2 1.1 2.8 3.4 3.6 5.2 1 2.4 1.3 9.3 1.3 27.3v24h12c0-42.3-0.4-56.1-0.9-58-0.6-2-2.5-5-4.3-6.7-1.8-1.8-4.5-3.7-6-4.3-1.5-0.6-6-1-10-1-4 0.1-7.9 0.3-8.8 0.6zm63.5 1.7c-2.7 1.3-6.4 3.9-8.2 5.8-1.7 1.8-4.4 6.1-5.9 9.4-2.6 5.4-2.8 7-2.8 17.5 0 10.4 0.2 12 2.8 17.5 1.5 3.3 4.2 7.5 5.9 9.3 1.8 1.9 5.5 4.5 8.2 5.8 3.8 1.8 6.7 2.3 12 2.3 4.6 0 8.4-0.6 11-1.8 2.2-1 5.6-3.2 7.5-4.9 2-1.8 3.9-3.2 4.3-3.2 0.4 0 0.7 2.4 0.7 5.5 0 3-0.7 7.1-1.5 9.2-0.9 2.1-2.3 4.6-3.3 5.6-0.9 1.1-3.5 2.8-5.7 3.8-2.7 1.2-6.3 1.8-11.5 1.8-4.1 0-9-0.6-11-1.2-1.9-0.7-5.2-2.5-7.2-4l-3.8-2.7c-3.8 6.2-5 8.3-5 8.7 0 0.4 2.2 2.2 4.8 3.9 2.6 1.7 6.5 3.7 8.7 4.5 2.2 0.7 8.3 1.3 13.5 1.3 7 0 11.1-0.5 15.4-1.9 3.3-1.1 7.7-3.6 9.9-5.5 2.2-2 5-5.3 6.1-7.5 2.1-3.9 2.2-5.6 2.4-42.3l0.2-38.2h-12c0 6.2-0.3 7.8-0.7 7.7-0.4-0.1-3.4-2-6.7-4.2-5.6-3.8-6.3-4.1-14.5-4.3-7.4-0.3-9.3 0-13.6 2.1zm-124.5 33.2v34.5h12v-69h-12z"/>
		<path id="Path 7" class="s1" d="m1211.4 490c0 12.4 0.2 17.3 0.3 11 0.2-6.3 0.2-16.4 0-22.5-0.1-6.1-0.3-0.9-0.3 11.5z"/>
		<path id="Path 8" class="s3" d="m962.5 454.2c-1.6 0.5-2.8 1.4-2.7 1.9 0.1 0.5-0.3 0.7-0.8 0.4-0.5-0.3-2.2 1-3.7 2.8-1.4 1.7-3.2 4.6-3.9 6.2-0.7 1.6-1.5 4.2-1.8 5.8l-0.6 2.7c39.1 0 41.1-0.2 41.6-1.7 0.4-1 0.2-3.4-0.4-5.3-0.6-1.9-2.5-5.2-4.2-7.2-1.6-2.1-3.5-3.6-4-3.3-0.5 0.3-1 0.1-1-0.5 0-0.6-1.2-1.4-2.8-1.8-1.5-0.5-5-0.9-7.7-0.9-2.8 0-6.3 0.4-8 0.9zm-251.5 1.2c-1.9 0.6-5.2 2.7-7.2 4.6l-3.7 3.5-0.1 29.5c5.4 5.4 7.5 6.8 8 6.5 0.5-0.3 1 0 1 0.5 0 0.6 1.5 1.5 3.2 2 1.8 0.6 4.9 1 6.8 1 1.9 0 5-0.4 6.7-1 1.8-0.5 3.3-1.4 3.3-2 0-0.5 0.3-0.8 0.7-0.5 0.5 0.2 1.8-0.6 2.9-1.8 1.2-1.2 2.9-3.6 3.7-5.2 0.8-1.6 1.8-4.4 2.2-6 0.4-1.6 0.9-4.4 1.2-6 0.3-1.6 0-5.6-0.6-8.7-0.6-3.2-1.6-5.8-2.1-5.8-0.5 0-0.8-0.4-0.5-1 0.3-0.6-1-2.6-2.8-4.6-1.7-1.9-4.8-4.2-6.7-5-1.9-0.8-5.5-1.4-8-1.3-2.5 0.2-6.1 0.8-8 1.3zm127.1 0c-1.8 0.7-4.5 2.8-6 4.7-1.4 1.9-2.5 3.7-2.3 4.2 0.1 0.4-0.3 0.7-0.8 0.7-0.5 0-1.4 1.5-1.9 3.3-0.5 1.7-1 4-1 5-0.1 0.9-0.1 3.4-0.2 5.5 0 2 0 4.6 0.1 5.7 0.1 1.1 0.7 2.9 1.3 4 0.6 1.1 1.1 2.3 1.2 2.8 0 0.4 1.4 2.4 3 4.4 1.6 2 4.8 4.5 7 5.5 2.2 1 5.9 1.8 8.3 1.8 2.3 0 5.9-0.7 8-1.6 2-0.8 4.9-2.7 6.4-4.2 1.4-1.5 3.2-4.1 3.9-5.7 0.7-1.6 1.3-3.2 1.3-3.5 0.1-0.3 0.5-1.1 0.9-1.7 0.4-0.7 0.7-4.3 0.6-8 0-3.8-0.5-8.3-1-10-0.5-1.8-1.4-3.3-1.9-3.3-0.5 0-1-0.6-1-1.2 0-0.7-1.4-2.7-3.2-4.4-1.8-1.6-4.5-3.6-6-4.2-1.6-0.7-5.2-1.2-8-1.2-2.9 0.1-6.8 0.7-8.7 1.4zm427-0.1c-1.8 0.7-4.7 3-6.4 5.2-1.8 2.2-3.7 6-4.4 8.5-0.7 2.5-1.1 7.4-1 11 0.2 3.6 1.1 8 2.1 10 1 1.9 3 4.8 4.5 6.3 1.4 1.6 4.2 3.5 6.1 4.3 1.9 0.8 5.6 1.4 8.3 1.4 2.6 0 4.9-0.4 5.2-1 0.3-0.6 1-0.8 1.5-0.5 0.5 0.3 1.7-0.2 2.5-1 0.8-0.8 1.7-1.2 2-0.7 0.3 0.4 0.5 0.1 0.5-0.5 0-0.7 0.7-1.3 1.5-1.3 0.8 0 2.4-1.2 3.5-2.7 1.9-2.5 2.1-4.3 2.1-16.8-0.1-14-0.1-14-2.8-16.7-1.6-1.5-4.6-3.5-6.8-4.5-2.2-1-6.5-1.9-9.5-2.1-3-0.1-7 0.4-8.9 1.1zm114.4 24.3c-1.1 0.3-1.9 1-1.7 1.5 0.1 0.5-0.1 0.7-0.6 0.4-0.4-0.2-1.6 0.4-2.7 1.6-1.1 1.1-1.5 2-1 1.9 0.5 0 0.3 0.5-0.5 1-1 0.6-1.5 2.6-1.5 6.1 0 3.3 0.5 5.4 1.2 5.6 0.7 0.2 1.1 0.6 0.8 1.1-0.2 0.4 0.4 1.6 1.6 2.7 1.1 1.1 2 1.6 1.9 1 0-0.6 0.4-0.4 0.8 0.3 0.4 0.7 2.7 1.6 5.2 1.9 2.5 0.3 6.6 0.3 9.2-0.1 2.7-0.3 5.4-1.2 6.1-1.8 0.7-0.7 2.2-1.8 3.2-2.4 1.7-0.9 2-2.4 2.2-8.3 0.3-6.9 0.2-7.2-2.7-9.1-1.7-1.1-3-1.7-3-1.2 0 0.4-0.5 0-1-0.8-0.7-1.1-3-1.6-8.2-1.7-4-0.1-8.2 0.1-9.3 0.3z"/>
	</g>
</svg>